<?xml version="1.0" encoding="utf-8"?>
<svg version="1.1" xmlns:xlink="http://www.w3.org/1999/xlink" width="8px" height="5px" xmlns="http://www.w3.org/2000/svg">
  <g transform="matrix(1 0 0 1 -151 -18 )">
    <path d="M 7.88718627450982 0.100121212121195  C 7.83125490196079 0.0392954545454529  7.75382352941176 0.00165454545455646  7.66825490196078 0.00165454545455646  C 7.5826862745098 0.00165454545455646  7.50526470588235 0.0392954545454529  7.44933333333333 0.100110606060611  L 4.02141176470587 3.80849848484849  L 0.593500000000006 0.100121212121195  C 0.53756862745098 0.0392954545454529  0.460137254901952 0.00165454545455646  0.374568627450969 0.00165454545455646  C 0.288999999999987 0.00165454545455646  0.211578431372544 0.0392954545454529  0.155647058823519 0.100110606060611  C 0.09940196078432 0.160628787878778  0.0646176470588102 0.244395454545469  0.0646176470588102 0.336975757575743  C 0.0646176470588102 0.429524242424236  0.0994117647058772 0.513301515151511  0.155627450980404 0.573809090909094  L 3.80248039215687 4.5190409090909  C 3.92384313725489 4.65033333333332  4.11898039215686 4.65033333333332  4.24033333333333 4.5190409090909  L 7.88717647058823 0.573819696969707  C 8.00853921568628 0.44252727272729  8.00853921568628 0.231424242424254  7.88717647058823 0.100142424242421  Z " fill-rule="nonzero" fill="#bfcbd9" stroke="none" transform="matrix(1 0 0 1 151 18 )" />
  </g>
</svg>