<?xml version="1.0" encoding="utf-8"?>
<svg version="1.1" xmlns:xlink="http://www.w3.org/1999/xlink" width="13px" height="13px" xmlns="http://www.w3.org/2000/svg">
  <g transform="matrix(1 0 0 1 -11 -14 )">
    <path d="M 3.84790528381147 6.90614935655738  L 3.84790528381147 8.42163205532787  L 1.57468123565575 8.42163205532787  L 1.57468123565575 9.17937340471312  L 3.84790528381147 9.17937340471312  L 3.84790528381147 10.6948561034836  L 4.60564663319673 10.6948561034836  L 4.60564663319673 9.17937340471312  L 10.667577414959 9.17937340471312  L 10.667577414959 8.42163205532787  L 4.60564663319673 8.42163205532787  L 4.60564663319673 6.90614935655738  L 3.84790528381147 6.90614935655738  Z M 8.39435336680327 2.35970127356558  L 8.39435336680327 3.87518397233607  L 1.57468123565575 3.87518397233607  L 1.57468123565575 4.63292532172132  L 8.39435336680327 4.63292532172132  L 8.39435336680327 6.14840802049181  L 9.15209471618853 6.14840802049181  L 9.15209471618853 4.63292532172132  L 10.667577414959 4.63292532172132  L 10.667577414959 3.87518397233607  L 9.15209471618853 3.87518397233607  L 9.15209471618853 2.35970127356558  L 8.39435336680327 2.35970127356558  Z M 0 13  L 0 0.0864772254098369  L 7.25000001955534 0.0864772254098369  L 13 0.0864772254098369  L 13 13  L 0 13  Z " fill-rule="nonzero" fill="#bfcbd9" stroke="none" transform="matrix(1 0 0 1 11 14 )" />
  </g>
</svg>