<?xml version="1.0" encoding="utf-8"?>
<svg version="1.1" xmlns:xlink="http://www.w3.org/1999/xlink" width="13px" height="13px" xmlns="http://www.w3.org/2000/svg">
  <g transform="matrix(1 0 0 1 -11 -14 )">
    <path d="M 13 2  C 13 0.899999999999999  12.1 0  11 0  L 2 0  C 0.900000000000006 0  0 0.899999999999999  0 2  L 0 11  C 0 12.1  0.900000000000006 13  2 13  L 11 13  C 12.1 13  13 12.1  13 11  L 13 2  Z M 9 9.5  C 9 9.78  8.78 10  8.5 10  L 3.5 10  C 3.22 10  3 9.78  3 9.5  C 3 9.22  3.22 9  3.5 9  L 8.5 9  C 8.78 9  9 9.22  9 9.5  Z M 3.5 7  C 3.22 7  3 6.78  3 6.5  C 3 6.22  3.22 6  3.5 6  L 7.5 6  C 7.78 6  8 6.22  8 6.5  C 8 6.78  7.78 7  7.5 7  L 3.5 7  Z M 10 3.5  C 10 3.78  9.78 4  9.5 4  L 3.5 4  C 3.22 4  3 3.78  3 3.5  C 3 3.22  3.22 3  3.5 3  L 9.5 3  C 9.78 3  10 3.22  10 3.5  Z " fill-rule="nonzero" fill="#bfcbd9" stroke="none" transform="matrix(1 0 0 1 11 14 )" />
  </g>
</svg>