<?xml version="1.0" encoding="utf-8"?>
<svg version="1.1" xmlns:xlink="http://www.w3.org/1999/xlink" width="13px" height="12px" xmlns="http://www.w3.org/2000/svg">
  <g transform="matrix(1 0 0 1 -11 -14 )">
    <path d="M 6.01492372881356 6.07842266949152  L 1.82688559322034 1.89043961864407  C -0.486067796610172 4.20346186440678  -0.486067796610172 7.95353495762711  1.82688559322034 10.2664608050847  L 6.01492372881356 6.07842266949152  Z M 7.05181144067797 5.99859110169491  L 6.45276483050847 5.39946186440677  L 5.25077436440678 7.79964194915254  L 7.05181144067797 5.99859110169491  Z M 6.46057309322033 0.10585911016949  C 5.95146610169492 0.156688559322035  5.44822563559322 0.274377118644068  4.96350741525424 0.456693855932201  L 3.81102436440678 2.75785911016949  L 4.69160911016949 3.63836122881356  L 6.46057309322033 0.10585911016949  Z M 7.77426165254238 0.121544491525427  C 7.33823834745763 0.0682775423728827  6.89758792372882 0.0622733050847444  6.46057309322033 0.10585911016949  L 4.69160911016949 3.63836122881356  L 5.5720561440678 4.51886334745763  L 7.77426165254238 0.121544491525427  Z M 8.96064936440678 0.391638771186443  C 8.57369279661017 0.260289194915252  8.17599470338983 0.170707627118645  7.77426165254238 0.121544491525427  L 5.5720561440678 4.51889088983051  L 6.45277860169492 5.39946186440677  L 8.96064936440678 0.391638771186443  Z M 5.25076059322033 7.79964194915254  L 2.86378707627118 10.1865603813559  C 3.12689936440678 10.4497415254237  3.40956673728813 10.6814555084746  3.70572987288135 10.8847457627119  L 5.25076059322033 7.79964194915254  Z M 4.9634936440678 0.456693855932201  C 4.27565042372882 0.715426906779662  3.6261186440678 1.10572987288135  3.05468326271186 1.62940677966102  L 2.8758781779661 1.79943961864407  L 3.81101059322035 2.75785911016949  L 4.9634936440678 0.456693855932201  Z M 10.2700275423729 10.971063559322  C 10.6133294491525 10.7484523305085  10.9389491525424 10.487626059322  11.2398495762712 10.1866980932203  C 12.4976271186441 8.92885169491525  13.0697923728814 7.24612288135593  12.9596228813559 5.60047987288135  L 10.2700275423729 10.971063559322  Z M 12.546845338983 3.78583686440678  C 12.3704502118644 3.34727966101695  12.1391080508475 2.9258125  11.8535487288136 2.53132309322034  L 7.15221716101695 11.9190031779661  C 7.63183559803217 11.9109194648254  8.108713743077 11.8448285772443  8.57245338983051 11.7221716101695  L 12.546845338983 3.78583686440678  Z M 10.0364544491525 0.881906779661016  C 9.69189936440678 0.680640889830507  9.33130084745763 0.517493644067798  8.96066313559322 0.391638771186443  L 6.45276483050847 5.39946186440677  L 7.05181144067797 5.99859110169491  L 5.25077436440678 7.79964194915254  L 3.70572987288135 10.8847457627119  C 4.03143857349575 11.1084464670016  4.37888158255213 11.2987221042217  4.74278283898305 11.4526832627119  L 10.0364544491525 0.881906779661016  Z M 10.2700275423729 10.971063559322  L 12.959595338983 5.60047987288135  C 12.918157838983 4.98213983050847  12.7813824152542 4.36912923728814  12.5468177966102 3.78583686440678  L 8.57245338983051 11.7221853813559  C 9.16577118644068 11.5651663135593  9.73942372881356 11.315219279661  10.2700275423729 10.971063559322  Z M 11.0043347457627 1.58816207627119  C 10.7064589537827 1.32057644942327  10.3821669764326 1.08394753821535  10.0364544491525 0.881920550847454  L 4.74278283898305 11.4527108050847  C 5.11384745762712 11.6097298728814  5.49731991525424 11.7278453389831  5.88759533898305 11.8057351694915  L 11.0043347457627 1.58816207627119  Z M 11.8535487288136 2.53133686440678  C 11.6708601694915 2.27914512711864  11.4668538135593 2.03770868644067  11.2397118644068 1.8105529661017  C 11.1628686440678 1.73372351694915  11.084248940678 1.65988241525424  11.0043347457627 1.58814830508474  L 5.88759533898305 11.8057076271186  C 6.30451800847457 11.8888855932203  6.72872563559322 11.926095338983  7.15221716101695 11.9190169491525  L 11.8535487288136 2.53133686440678  Z " fill-rule="nonzero" fill="#bfcbd9" stroke="none" transform="matrix(1 0 0 1 11 14 )" />
  </g>
</svg>