<?xml version="1.0" encoding="utf-8"?>
<svg version="1.1" xmlns:xlink="http://www.w3.org/1999/xlink" width="13px" height="13px" xmlns="http://www.w3.org/2000/svg">
  <g transform="matrix(1 0 0 1 -11 -14 )">
    <path d="M 13 6.5  C 13 10.0895089285714  10.0895089285714 13  6.5 13  C 2.91049107142857 13  0 10.0895089285714  0 6.5  C 0 2.91049107142857  2.91049107142857 0  6.5 0  C 10.0895089285714 0  13 2.91049107142857  13 6.5  Z M 5.7890625 6.18805803571428  L 5.81517857142858 6.17935267857143  C 5.77165178571428 6.34330357142857  5.73683035714285 6.49129464285714  5.65848214285714 6.81194196428572  C 5.58013392857143 7.13258928571429  5.51919642857143 7.39229910714286  5.46841517857143 7.60122767857143  C 5.37265625000001 8.00022321428571  5.29575892857143 8.36439732142857  5.22611607142858 8.70245535714285  C 5.18549107142857 8.89397321428572  5.23772321428571 9.09274553571429  5.36540178571428 9.23928571428571  C 5.46116071428571 9.36696428571428  5.61350446428571 9.44095982142857  5.77310267857143 9.43805803571428  C 5.84274553571429 9.44095982142857  5.9109375 9.42645089285715  5.971875 9.39453125  C 6.27511160714286 9.26685267857142  6.56529017857143 9.11015625  6.83805803571428 8.92589285714286  L 6.96863839285714 8.83883928571429  L 7.21964285714286 8.66618303571428  L 7.28058035714285 8.62265625  L 7.34151785714286 8.62265625  L 7.43727678571429 8.56171875  L 7.49821428571428 8.51819196428572  L 7.49821428571428 8.44854910714286  L 7.36763392857144 8.29185267857143  C 7.36908482142857 8.27154017857143  7.36908482142857 8.25122767857143  7.36763392857144 8.23091517857143  L 7.30669642857143 8.10033482142858  L 7.26316964285715 8.02198660714286  L 7.17611607142857 8.02198660714286  L 7.05424107142858 8.08292410714286  L 6.93236607142858 8.16127232142857  L 6.82790178571429 8.23091517857143  L 6.62042410714287 8.37020089285714  L 6.47243303571429 8.41372767857143  C 6.54207589285714 8.10178571428572  6.56819196428572 7.97991071428572  6.61171875000001 7.82466517857143  C 6.65524553571429 7.66796875  6.67265625 7.58236607142857  6.69877232142858 7.46049107142857  L 6.69877232142858 7.30379464285714  C 6.76841517857143 7.02667410714286  6.83805803571428 6.75825892857143  6.91495535714286 6.48984375  L 7.01071428571429 6.134375  L 7.01071428571429 6.00669642857143  L 7.07165178571429 5.77310267857143  C 7.10647321428571 5.61640625  7.10647321428571 5.45390625  7.07165178571429 5.29575892857143  C 7.05279017857143 5.1390625  6.94977678571429 5.00558035714285  6.80323660714286 4.94899553571429  C 6.68281250000001 4.89241071428572  6.54207589285714 4.89241071428572  6.42165178571429 4.94899553571429  C 6.27511160714286 5.00993303571428  6.13582589285714 5.08537946428572  6.00524553571429 5.17388392857143  C 5.81517857142858 5.30446428571429  5.67589285714286 5.40747767857143  5.32042410714286 5.67589285714286  L 5.06941964285714 5.85725446428572  L 4.91272321428572 5.97912946428571  L 4.81696428571429 6.05747767857143  L 4.76473214285714 6.13582589285714  L 4.80825892857143 6.21417410714285  L 4.86919642857143 6.31863839285714  L 4.86919642857143 6.37957589285714  L 4.94754464285714 6.51015625  L 5.00848214285715 6.58850446428571  L 5.15647321428571 6.50145089285714  L 5.27834821428571 6.41439732142857  L 5.46841517857143 6.28381696428571  L 5.7890625 6.12712053571428  L 5.7890625 6.07488839285714  C 5.79776785714286 6.11261160714285  5.79776785714286 6.15033482142857  5.7890625 6.18805803571428  Z M 5.76439732142858 3.4328125  L 5.76294642857142 3.45747767857143  C 5.75133928571428 3.61997767857143  5.80792410714285 3.77957589285714  5.91964285714286 3.9  C 6.08069196428572 4.05669642857143  6.30267857142857 4.13649553571428  6.52611607142858 4.11618303571429  C 6.71473214285714 4.10747767857143  6.89609375000001 4.04073660714285  7.04553571428571 3.92611607142857  C 7.31395089285714 3.74910714285714  7.4140625 3.40379464285714  7.27912946428572 3.11216517857143  C 7.18627232142858 2.91484375  7.00055803571428 2.77845982142857  6.78582589285715 2.74799107142857  L 6.58705357142857 2.74799107142857  C 6.49854910714285 2.73058035714286  6.40714285714286 2.73058035714286  6.31863839285714 2.74799107142857  C 6.01104910714285 2.84229910714286  5.79196428571429 3.11216517857143  5.76439732142858 3.4328125  Z " fill-rule="nonzero" fill="#bfcbd9" stroke="none" transform="matrix(1 0 0 1 11 14 )" />
  </g>
</svg>