<?xml version="1.0" encoding="utf-8"?>
<svg version="1.1" xmlns:xlink="http://www.w3.org/1999/xlink" width="16px" height="14px" xmlns="http://www.w3.org/2000/svg">
  <g transform="matrix(1 0 0 1 -194 -18 )">
    <path d="M 15.9844054561404 12.6610407974684  L 15.9844054561404 14  L 0.0155945438596348 14  L 0.0155945438596348 12.6610407974684  L 15.9844054561404 12.6610407974684  Z M 15.9844054561404 6.36005625632912  L 15.9844054561404 7.62025316455696  L 4.0077972631579 7.62025316455696  L 4.0077972631579 6.36005625632912  L 15.9844054561404 6.36005625632912  Z M 15.9844054561404 0  L 15.9844054561404 1.31926864556962  L 0.0155945438596348 1.31926864556962  L 0.0155945438596348 0  L 15.9844054561404 0  Z M 1.41286549122808 6.99015472151899  L 3.50877192982455 4.34374121202532  L 2.81013645614033 3.46160338291139  L 0.0155945438596348 6.99015472151899  L 0.414814807017564 7.49423347151898  L 2.90994152631581 10.6447257310127  L 3.608577 9.76258790189874  L 1.41286549122808 6.99015472151899  Z " fill-rule="nonzero" fill="#304156" stroke="none" transform="matrix(1 0 0 1 194 18 )" />
  </g>
</svg>