<?xml version="1.0" encoding="utf-8"?>
<svg version="1.1" xmlns:xlink="http://www.w3.org/1999/xlink" width="9px" height="10px" xmlns="http://www.w3.org/2000/svg">
  <g transform="matrix(1 0 0 1 -316 -307 )">
    <path d="M 4.16529919687497 7.59365079687495  C 5.93261039719653 7.59365079687495  7.3652991984375 6.11547981146759  7.3652991984375 4.29206349367558  C 7.3652991984375 2.46864717588358  5.93261039719653 0.990476190476159  4.16529919687497 0.990476190476159  C 2.39798799655347 0.990476190476159  0.965299195312525 2.46864717588358  0.965299195312525 4.29206349367558  C 0.965299195312525 6.11547981146759  2.39798799655347 7.59365079687495  4.16529919687497 7.59365079687495  Z M 7.3992192 6.99144127306545  L 8.90129920312498 8.54120634598212  C 9.02622142928197 8.67013328107714  9.02622142928197 8.87912386177999  8.90129920312498 9.00805079687501  L 8.67473920312494 9.24114285714285  C 8.5497792506483 9.37003086825712  8.34721914935176 9.37003086825712  8.22225919687497 9.24114285714285  L 6.71377920000003 7.68477460639883  C 5.98451168154992 8.26794166151001  5.08802912513011 8.58441914216075  4.1653652287099 8.58441914216075  C 1.86786067113971 8.58441914216075  0.00536523183492932 6.66279686351294  0.00536523183492932 4.29235565332147  C 0.00536523183492932 1.92191444312999  1.86786067113971 0.000292164482175394  4.1653652287099 0.000292164482175394  C 6.46286978628015 0.000292164482175394  8.3253652255849 1.92191444312999  8.3253652255849 4.29235565332147  C 8.3253652255849 5.27482237033558  7.99867819172113 6.22755120608645  7.39985920312506 6.99144127306545  Z " fill-rule="nonzero" fill="#d7d7d7" stroke="none" transform="matrix(1 0 0 1 316 307 )" />
  </g>
</svg>