<?xml version="1.0" encoding="utf-8"?>
<svg version="1.1" xmlns:xlink="http://www.w3.org/1999/xlink" width="197px" height="31px" xmlns="http://www.w3.org/2000/svg">
  <defs>
    <mask fill="white" id="clip7">
      <path d="M 0 25  L 0 6  C 0 2.64  2.6400000000001 0  6 0  L 56.9090909090908 0  L 140.561403508772 0  L 191 0  C 194.36 0  197 2.64  197 6  L 197 25  C 197 28.36  194.36 31  191 31  L 6 31  C 2.6400000000001 31  0 28.36  0 25  Z " fill-rule="evenodd" />
    </mask>
  </defs>
  <g transform="matrix(1 0 0 1 -1084 -104 )">
    <path d="M 0 25  L 0 6  C 0 2.64  2.6400000000001 0  6 0  L 56.9090909090908 0  L 140.561403508772 0  L 191 0  C 194.36 0  197 2.64  197 6  L 197 25  C 197 28.36  194.36 31  191 31  L 6 31  C 2.6400000000001 31  0 28.36  0 25  Z " fill-rule="nonzero" fill="#ffffff" stroke="none" transform="matrix(1 0 0 1 1084 104 )" />
    <path d="M 0 25  L 0 6  C 0 2.64  2.6400000000001 0  6 0  L 56.9090909090908 0  L 140.561403508772 0  L 191 0  C 194.36 0  197 2.64  197 6  L 197 25  C 197 28.36  194.36 31  191 31  L 6 31  C 2.6400000000001 31  0 28.36  0 25  Z " stroke-width="2" stroke="#cccccc" fill="none" transform="matrix(1 0 0 1 1084 104 )" mask="url(#clip7)" />
  </g>
</svg>