<?xml version="1.0" encoding="utf-8"?>
<svg version="1.1" xmlns:xlink="http://www.w3.org/1999/xlink" width="15px" height="14px" xmlns="http://www.w3.org/2000/svg">
  <g transform="matrix(1 0 0 1 -318 -114 )">
    <path d="M 15 1.02368000000001  L 11.2389473684211 1.02368000000001  L 11.2389473684211 0.029120000000006  L 10.3042105263158 0.029120000000006  L 10.3042105263158 1.02368000000001  L 4.6957894736842 1.02368000000001  L 4.6957894736842 0.029120000000006  L 3.76105263157895 0.029120000000006  L 3.76105263157895 1.02368000000001  L 0 1.02368000000001  L 0 14  L 15 14  L 15 1.02368000000001  Z M 14.0515789473684 6  L 14.0515789473684 13  L 0.948421052631563 13  L 0.948421052631563 6  L 14.0515789473684 6  Z M 14.0431578947369 5.01088000000001  L 14.0515789473684 5  L 0.948421052631563 5  L 0.948421052631563 1.91968000000001  L 3.75263157894735 1.91968000000001  L 3.75263157894735 3.01279999999998  L 4.68736842105264 3.01279999999998  L 4.68736842105264 1.91968000000001  L 10.3042105263158 1.91968000000001  L 10.3042105263158 3.01279999999998  L 11.2389473684211 3.01279999999998  L 11.2389473684211 1.91968000000001  L 14.0431578947369 1.91968000000001  L 14.0431578947369 5.01088000000001  Z " fill-rule="nonzero" fill="#d7d7d7" stroke="none" transform="matrix(1 0 0 1 318 114 )" />
  </g>
</svg>