<?xml version="1.0" encoding="utf-8"?>
<svg version="1.1" xmlns:xlink="http://www.w3.org/1999/xlink" width="9px" height="5px" xmlns="http://www.w3.org/2000/svg">
  <g transform="matrix(1 0 0 1 -320 -121 )">
    <path d="M 7.16399999999998 4.93333333333334  L 7.16399999999998 2.95999999999999  L 8.94 2.95999999999999  L 8.94 4.93333333333334  L 7.16399999999998 4.93333333333334  Z M 3.61199999999999 1.97333333333333  L 3.61199999999999 0  L 5.38800000000001 0  L 5.38800000000001 1.97333333333333  L 3.61199999999999 1.97333333333333  Z M 7.16399999999998 1.97333333333333  L 7.16399999999998 0  L 8.94 0  L 8.94 1.97333333333333  L 7.16399999999998 1.97333333333333  Z M 0.0519999999999953 4.93333333333334  L 0.0519999999999953 2.95999999999999  L 1.828 2.95999999999999  L 1.828 4.93333333333334  L 0.0519999999999953 4.93333333333334  Z M 3.61199999999999 4.93333333333334  L 3.61199999999999 2.95999999999999  L 5.38800000000001 2.95999999999999  L 5.38800000000001 4.93333333333334  L 3.61199999999999 4.93333333333334  Z M 0.0519999999999953 1.97333333333333  L 0.0519999999999953 0  L 1.828 0  L 1.828 1.97333333333333  L 0.0519999999999953 1.97333333333333  Z " fill-rule="nonzero" fill="#d7d7d7" stroke="none" transform="matrix(1 0 0 1 320 121 )" />
  </g>
</svg>