<?xml version="1.0" encoding="utf-8"?>
<svg version="1.1" xmlns:xlink="http://www.w3.org/1999/xlink" width="10px" height="5px" xmlns="http://www.w3.org/2000/svg">
  <g transform="matrix(1 0 0 1 -918 -192 )">
    <path d="M 7.95999999999998 4.93333333333334  L 7.95999999999998 2.95999999999999  L 9.93333333333334 2.95999999999999  L 9.93333333333334 4.93333333333334  L 7.95999999999998 4.93333333333334  Z M 4.01333333333332 1.97333333333333  L 4.01333333333332 0  L 5.98666666666668 0  L 5.98666666666668 1.97333333333333  L 4.01333333333332 1.97333333333333  Z M 7.95999999999998 1.97333333333333  L 7.95999999999998 0  L 9.93333333333334 0  L 9.93333333333334 1.97333333333333  L 7.95999999999998 1.97333333333333  Z M 0.0577777777777726 4.93333333333334  L 0.0577777777777726 2.95999999999999  L 2.03111111111112 2.95999999999999  L 2.03111111111112 4.93333333333334  L 0.0577777777777726 4.93333333333334  Z M 4.01333333333332 4.93333333333334  L 4.01333333333332 2.95999999999999  L 5.98666666666668 2.95999999999999  L 5.98666666666668 4.93333333333334  L 4.01333333333332 4.93333333333334  Z M 0.0577777777777726 1.97333333333333  L 0.0577777777777726 0  L 2.03111111111112 0  L 2.03111111111112 1.97333333333333  L 0.0577777777777726 1.97333333333333  Z " fill-rule="nonzero" fill="#d7d7d7" stroke="none" transform="matrix(1 0 0 1 918 192 )" />
  </g>
</svg>