<?xml version="1.0" encoding="utf-8"?>
<svg version="1.1" xmlns:xlink="http://www.w3.org/1999/xlink" width="20px" height="21px" xmlns="http://www.w3.org/2000/svg">
  <g transform="matrix(1 0 0 1 -233 -270 )">
    <path d="M 8.78605769230769 1.962890625  C 8.48958333333333 1.654296875  8.125 1.5  7.69230769230769 1.5  C 7.26762820512821 1.5  6.90504807692308 1.646484375  6.60456730769231 1.939453125  C 6.30408653846154 2.232421875  6.15384615384615 2.5859375  6.15384615384615 3  L 6.15384615384615 9  L 6.15384615384615 13.5  L 4.33894230769231 11.1328125  C 4.01041666666667 10.7109375  3.58173076923077 10.5  3.05288461538462 10.5  C 2.63621794871795 10.5  2.27964743589744 10.6484375  1.98317307692308 10.9453125  C 1.68669871794872 11.2421875  1.53846153846154 11.59375  1.53846153846154 12  C 1.53846153846154 12.3359375  1.64262820512821 12.63671875  1.85096153846154 12.90234375  L 6.46634615384615 18.90234375  C 6.77083333333333 19.30078125  7.17948717948718 19.5  7.69230769230769 19.5  L 16.3221153846154 19.5  C 16.4983974358974 19.5  16.6566506410256 19.447265625  16.796875 19.341796875  C 16.9370993589744 19.236328125  17.0272435897436 19.1015625  17.0673076923077 18.9375  L 18.1730769230769 14.625  C 18.3653846153846 13.875  18.4615384615385 13.1171875  18.4615384615385 12.3515625  L 18.4615384615385 9.80859375  C 18.4615384615385 9.48828125  18.349358974359 9.2109375  18.125 8.9765625  C 17.900641025641 8.7421875  17.6282051282051 8.625  17.3076923076923 8.625  C 16.9871794871795 8.625  16.7147435897436 8.734375  16.4903846153846 8.953125  C 16.2660256410256 9.171875  16.1538461538462 9.4375  16.1538461538462 9.75  L 15.7692307692308 9.75  L 15.7692307692308 9.03515625  C 15.7692307692308 8.66015625  15.6410256410256 8.341796875  15.3846153846154 8.080078125  C 15.1282051282051 7.818359375  14.8076923076923 7.6875  14.4230769230769 7.6875  C 14.0544871794872 7.6875  13.7379807692308 7.81640625  13.4735576923077 8.07421875  C 13.2091346153846 8.33203125  13.0769230769231 8.640625  13.0769230769231 9  L 13.0769230769231 9.75  L 12.6923076923077 9.75  L 12.6923076923077 8.6953125  C 12.6923076923077 8.265625  12.5440705128205 7.896484375  12.2475961538462 7.587890625  C 11.9511217948718 7.279296875  11.5865384615385 7.125  11.1538461538462 7.125  C 10.7291666666667 7.125  10.3665865384615 7.271484375  10.0661057692308 7.564453125  C 9.765625 7.857421875  9.61538461538462 8.2109375  9.61538461538462 8.625  L 9.61538461538462 9.75  L 9.23076923076923 9.75  L 9.23076923076923 3.0703125  C 9.23076923076923 2.640625  9.08253205128205 2.271484375  8.78605769230769 1.962890625  Z M 5.51682692307692 0.878906250000001  C 6.11778846153846 0.292968750000001  6.84294871794872 0  7.69230769230769 0  C 8.54967948717949 0  9.27684294871795 0.302734375000001  9.87379807692308 0.908203125000001  C 10.4707532051282 1.513671875  10.7692307692308 2.234375  10.7692307692308 3.0703125  L 10.7692307692308 5.6484375  C 10.9455128205128 5.6328125  11.073717948718 5.625  11.1538461538462 5.625  C 11.9471153846154 5.625  12.6402243589744 5.89453125  13.2331730769231 6.43359375  C 13.6097756410256 6.26953125  14.0064102564103 6.1875  14.4230769230769 6.1875  C 15.3285256410256 6.1875  16.0657051282051 6.52734375  16.6346153846154 7.20703125  C 16.8509615384615 7.15234375  17.0753205128205 7.125  17.3076923076923 7.125  C 18.0608974358974 7.125  18.6979166666667 7.388671875  19.21875 7.916015625  C 19.7395833333333 8.443359375  20 9.07421875  20 9.80859375  L 20 12.3515625  C 20 13.2578125  19.8878205128205 14.13671875  19.6634615384615 14.98828125  L 18.5576923076923 19.30078125  C 18.4294871794872 19.80078125  18.1570512820513 20.208984375  17.7403846153846 20.525390625  C 17.323717948718 20.841796875  16.8509615384615 21  16.3221153846154 21  L 7.69230769230769 21  C 7.21153846153846 21  6.75280448717949 20.892578125  6.31610576923077 20.677734375  C 5.87940705128205 20.462890625  5.51682692307692 20.171875  5.22836538461538 19.8046875  L 0.612980769230769 13.8046875  C 0.204326923076923 13.2734375  0 12.671875  0 12  C 0 11.1796875  0.298477564102564 10.474609375  0.895432692307692 9.884765625  C 1.49238782051282 9.294921875  2.21153846153846 9  3.05288461538462 9  C 3.62179487179487 9  4.14262820512821 9.13671875  4.61538461538462 9.41015625  L 4.61538461538462 3  C 4.61538461538462 2.171875  4.91586538461538 1.46484375  5.51682692307692 0.878906250000001  Z M 8.84615384615385 16.5  L 9.23076923076923 16.5  L 9.23076923076923 12  L 8.84615384615385 12  L 8.84615384615385 16.5  Z M 11.9230769230769 16.5  L 12.3076923076923 16.5  L 12.3076923076923 12  L 11.9230769230769 12  L 11.9230769230769 16.5  Z M 15 16.5  L 15.3846153846154 16.5  L 15.3846153846154 12  L 15 12  L 15 16.5  Z " fill-rule="nonzero" fill="#f00e0e" stroke="none" transform="matrix(1 0 0 1 233 270 )" />
  </g>
</svg>