<?xml version="1.0" encoding="utf-8"?>
<svg version="1.1" xmlns:xlink="http://www.w3.org/1999/xlink" width="85px" height="82px" xmlns="http://www.w3.org/2000/svg">
  <g transform="matrix(1 0 0 1 -254 -165 )">
    <path d="M 59.3861607142857 72.1389508928571  C 64.6037946428572 69.4696800595238  68.8885788690476 65.8470982142857  72.2405133928572 61.2712053571429  C 71.5448288690476 56.5427827380952  70.161365327381 52.6151413690476  68.0901227678572 49.48828125  C 66.0188802083333 46.3614211309524  63.1017485119048 44.5539434523809  59.3387276785714 44.0658482142857  C 57.2200520833333 46.3232886904762  54.6981956845238 48.0850074404762  51.7731584821429 49.3510044642857  C 48.8481212797619 50.6170014880952  45.757068452381 51.25  42.5 51.25  C 39.242931547619 51.25  36.1518787202381 50.6170014880952  33.2268415178571 49.3510044642857  C 30.3018043154762 48.0850074404762  27.7799479166667 46.3232886904762  25.6612723214286 44.0658482142857  C 21.8982514880952 44.5539434523809  18.9811197916667 46.3614211309524  16.9098772321429 49.48828125  C 14.838634672619 52.6151413690476  13.4551711309524 56.5427827380952  12.7594866071429 61.2712053571429  C 16.1114211309524 65.8470982142857  20.3962053571429 69.4696800595238  25.6138392857143 72.1389508928571  C 30.8314732142857 74.8082217261905  36.460193452381 76.1428571428571  42.5 76.1428571428571  C 48.5398065476191 76.1428571428571  54.1685267857143 74.8082217261905  59.3861607142857 72.1389508928571  Z M 55.3780691964286 41.7092633928571  C 58.935546875 38.27734375  60.7142857142857 34.1361607142857  60.7142857142857 29.2857142857143  C 60.7142857142857 24.4352678571429  58.935546875 20.2940848214286  55.3780691964286 16.8621651785714  C 51.8205915178571 13.4302455357143  47.5279017857143 11.7142857142857  42.5 11.7142857142857  C 37.4720982142857 11.7142857142857  33.1794084821429 13.4302455357143  29.6219308035714 16.8621651785714  C 26.064453125 20.2940848214286  24.2857142857143 24.4352678571429  24.2857142857143 29.2857142857143  C 24.2857142857143 34.1361607142857  26.064453125 38.27734375  29.6219308035714 41.7092633928571  C 33.1794084821429 45.1411830357143  37.4720982142857 46.8571428571429  42.5 46.8571428571429  C 47.5279017857143 46.8571428571429  51.8205915178571 45.1411830357143  55.3780691964286 41.7092633928571  Z M 81.6322544642857 25.0758928571429  C 83.8774181547619 30.1398809523809  85 35.4479166666667  85 41  C 85 46.5520833333333  83.8774181547619 51.8524925595238  81.6322544642857 56.9012276785714  C 79.3870907738095 61.949962797619  76.3750930059524 66.3123139880952  72.5962611607143 69.98828125  C 68.8174293154762 73.6642485119048  64.3033854166667 76.5851934523809  59.0541294642857 78.7511160714286  C 53.8048735119048 80.9170386904762  48.2868303571429 82  42.5 82  C 36.7447916666667 82  31.2425595238095 80.9170386904762  25.9933035714286 78.7511160714286  C 20.7440476190476 76.5851934523809  16.2220982142857 73.671875  12.4274553571429 70.0111607142857  C 8.6328125 66.3504464285714  5.61290922619048 61.9880952380952  3.36774553571429 56.9241071428571  C 1.1225818452381 51.860119047619  0 46.5520833333333  0 41  C 0 35.4479166666667  1.1225818452381 30.1398809523809  3.36774553571429 25.0758928571429  C 5.61290922619048 20.0119047619048  8.6328125 15.6495535714286  12.4274553571429 11.9888392857143  C 16.2220982142857 8.328125  20.7440476190476 5.41480654761905  25.9933035714286 3.24888392857143  C 31.2425595238095 1.08296130952381  36.7447916666667 0  42.5 0  C 48.2552083333333 0  53.7574404761905 1.08296130952381  59.0066964285714 3.24888392857143  C 64.2559523809524 5.41480654761905  68.7779017857143 8.328125  72.5725446428572 11.9888392857143  C 76.3671875 15.6495535714286  79.3870907738095 20.0119047619048  81.6322544642857 25.0758928571429  Z " fill-rule="nonzero" fill="#000000" stroke="none" transform="matrix(1 0 0 1 254 165 )" />
  </g>
</svg>