<?xml version="1.0" encoding="utf-8"?>
<svg version="1.1" xmlns:xlink="http://www.w3.org/1999/xlink" width="43px" height="44px" xmlns="http://www.w3.org/2000/svg">
  <g transform="matrix(1 0 0 1 -1508 -651 )">
    <path d="M 1529.5 651  C 1541.54 651  1551 660.68  1551 673  C 1551 685.32  1541.54 695  1529.5 695  C 1517.46 695  1508 685.32  1508 673  C 1508 660.68  1517.46 651  1529.5 651  Z " fill-rule="nonzero" fill="#ffffff" stroke="none" />
    <path d="M 1529.5 651.5  C 1541.26 651.5  1550.5 660.96  1550.5 673  C 1550.5 685.04  1541.26 694.5  1529.5 694.5  C 1517.74 694.5  1508.5 685.04  1508.5 673  C 1508.5 660.96  1517.74 651.5  1529.5 651.5  Z " stroke-width="1" stroke="#797979" fill="none" />
  </g>
</svg>