<?xml version="1.0" encoding="utf-8"?>
<svg version="1.1" xmlns:xlink="http://www.w3.org/1999/xlink" width="10px" height="4px" xmlns="http://www.w3.org/2000/svg">
  <g transform="matrix(1 0 0 1 -528 -82 )">
    <path d="M 7.95999999999998 3.94666666666667  L 7.95999999999998 2.368  L 9.93333333333334 2.368  L 9.93333333333334 3.94666666666667  L 7.95999999999998 3.94666666666667  Z M 4.01333333333332 1.57866666666666  L 4.01333333333332 0  L 5.98666666666668 0  L 5.98666666666668 1.57866666666666  L 4.01333333333332 1.57866666666666  Z M 7.95999999999998 1.57866666666666  L 7.95999999999998 0  L 9.93333333333334 0  L 9.93333333333334 1.57866666666666  L 7.95999999999998 1.57866666666666  Z M 0.0577777777777726 3.94666666666667  L 0.0577777777777726 2.368  L 2.03111111111112 2.368  L 2.03111111111112 3.94666666666667  L 0.0577777777777726 3.94666666666667  Z M 4.01333333333332 3.94666666666667  L 4.01333333333332 2.368  L 5.98666666666668 2.368  L 5.98666666666668 3.94666666666667  L 4.01333333333332 3.94666666666667  Z M 0.0577777777777726 1.57866666666666  L 0.0577777777777726 0  L 2.03111111111112 0  L 2.03111111111112 1.57866666666666  L 0.0577777777777726 1.57866666666666  Z " fill-rule="nonzero" fill="#d7d7d7" stroke="none" transform="matrix(1 0 0 1 528 82 )" />
  </g>
</svg>