<?xml version="1.0" encoding="utf-8"?>
<svg version="1.1" xmlns:xlink="http://www.w3.org/1999/xlink" width="16px" height="11px" xmlns="http://www.w3.org/2000/svg">
  <g transform="matrix(1 0 0 1 -525 -76 )">
    <path d="M 16 0.804320000000005  L 11.9882105263158 0.804320000000005  L 11.9882105263158 0.0228800000000047  L 10.9911578947368 0.0228800000000047  L 10.9911578947368 0.804320000000005  L 5.00884210526314 0.804320000000005  L 5.00884210526314 0.0228800000000047  L 4.01178947368422 0.0228800000000047  L 4.01178947368422 0.804320000000005  L 0 0.804320000000005  L 0 11  L 16 11  L 16 0.804320000000005  Z M 14.988350877193 4.71855999999999  L 14.988350877193 10.27312  L 1.011649122807 10.27312  L 1.011649122807 4.71855999999999  L 14.988350877193 4.71855999999999  Z M 14.9793684210526 3.93712000000001  L 14.988350877193 4  L 1.011649122807 4  L 1.011649122807 1.50832000000001  L 4.00280701754384 1.50832000000001  L 4.00280701754384 2.36719999999999  L 4.99985964912281 2.36719999999999  L 4.99985964912281 1.50832000000001  L 10.9911578947368 1.50832000000001  L 10.9911578947368 2.36719999999999  L 11.9882105263158 2.36719999999999  L 11.9882105263158 1.50832000000001  L 14.9793684210526 1.50832000000001  L 14.9793684210526 3.93712000000001  Z " fill-rule="nonzero" fill="#d7d7d7" stroke="none" transform="matrix(1 0 0 1 525 76 )" />
  </g>
</svg>